<svg width="1600" height="900" viewBox="0 0 1600 900" fill="none" xmlns="http://www.w3.org/2000/svg">
  <rect width="1600" height="900" rx="28" fill="#F5F7FB"/>
  <rect x="18" y="18" width="1564" height="864" rx="24" fill="#FCFDFF" stroke="#D8E1F0"/>
  <rect x="36" y="36" width="272" height="828" rx="24" fill="#FFFFFF" stroke="#E2E8F5"/>
  <circle cx="76" cy="78" r="22" fill="#EEF2FF" stroke="#C7D2FE"/>
  <path d="M68 78H84M76 70V86M71 73L81 83M81 73L71 83" stroke="#4F6AF2" stroke-width="2.4" stroke-linecap="round"/>
  <text x="110" y="70" fill="#1F2A44" font-size="30" font-family="Arial, Helvetica, sans-serif" font-weight="700">Design Tension Studio</text>
  <text x="110" y="98" fill="#F26F57" font-size="18" font-family="Arial, Helvetica, sans-serif" font-weight="700" letter-spacing="3">INSTRUCTIONAL DESIGN SYSTEMS LAB</text>

  <rect x="54" y="132" width="236" height="316" rx="24" fill="#FDFEFF" stroke="#E0E7F4"/>
  <text x="74" y="165" fill="#73819C" font-size="15" font-family="Arial, Helvetica, sans-serif" font-weight="700" letter-spacing="3">SELECTED INSTRUCTOR CASE</text>
  <rect x="74" y="195" width="196" height="88" rx="18" fill="#F6F8FD" stroke="#E3E8F2"/>
  <text x="92" y="218" fill="#7483A0" font-size="14" font-family="Arial, Helvetica, sans-serif" font-weight="700" letter-spacing="2.5">INSTRUCTOR CASE</text>
  <rect x="88" y="231" width="168" height="38" rx="14" fill="#EEF2FB"/>
  <text x="104" y="255" fill="#33405C" font-size="18" font-family="Arial, Helvetica, sans-serif">AI-Personalized Pathways</text>
  <text x="74" y="318" fill="#1F2A44" font-size="44" font-family="Arial, Helvetica, sans-serif" font-weight="700">Case</text>
  <text x="74" y="355" fill="#66758F" font-size="20" font-family="Arial, Helvetica, sans-serif">A networked design case for</text>
  <text x="74" y="383" fill="#66758F" font-size="20" font-family="Arial, Helvetica, sans-serif">surfacing tensions, evidence,</text>
  <text x="74" y="411" fill="#66758F" font-size="20" font-family="Arial, Helvetica, sans-serif">and stakeholder trade-offs.</text>

  <rect x="54" y="476" width="236" height="72" rx="24" fill="#EEF2FF"/>
  <circle cx="84" cy="512" r="18" fill="#FFFFFF" stroke="#C9D2F4"/>
  <path d="M76 512H92M84 504V520M79 507L89 517M89 507L79 517" stroke="#4F6AF2" stroke-width="2.2" stroke-linecap="round"/>
  <text x="114" y="519" fill="#4F6AF2" font-size="22" font-family="Arial, Helvetica, sans-serif" font-weight="700">Network</text>

  <text x="74" y="594" fill="#727F97" font-size="18" font-family="Arial, Helvetica, sans-serif">Perspectives</text>
  <text x="74" y="662" fill="#727F97" font-size="18" font-family="Arial, Helvetica, sans-serif">Trade-offs</text>
  <text x="74" y="730" fill="#727F97" font-size="18" font-family="Arial, Helvetica, sans-serif">Report</text>

  <rect x="326" y="36" width="1238" height="74" rx="24" fill="#FFFFFF" stroke="#E0E7F4"/>
  <text x="1388" y="82" fill="#6E7C97" font-size="24" font-family="Arial, Helvetica, sans-serif" font-weight="700">Admin</text>

  <rect x="326" y="128" width="304" height="736" rx="30" fill="#FFFFFF" stroke="#E0E7F4"/>
  <text x="348" y="168" fill="#7B88A0" font-size="14" font-family="Arial, Helvetica, sans-serif" font-weight="700" letter-spacing="3">START HERE</text>
  <text x="348" y="226" fill="#1F2A44" font-size="52" font-family="Arial, Helvetica, sans-serif" font-weight="700">Create or</text>
  <text x="348" y="284" fill="#1F2A44" font-size="52" font-family="Arial, Helvetica, sans-serif" font-weight="700">Choose</text>
  <text x="348" y="342" fill="#1F2A44" font-size="52" font-family="Arial, Helvetica, sans-serif" font-weight="700">a Case</text>
  <rect x="470" y="152" width="116" height="44" rx="22" fill="#EEF2FF" stroke="#C8D3F6"/>
  <text x="489" y="180" fill="#4F6AF2" font-size="22" font-family="Arial, Helvetica, sans-serif">Instructor</text>

  <rect x="350" y="392" width="256" height="208" rx="24" fill="#F7F9FD" stroke="#DFE6F4"/>
  <text x="372" y="430" fill="#1F2A44" font-size="26" font-family="Arial, Helvetica, sans-serif" font-weight="700">AI-Personalized</text>
  <text x="372" y="463" fill="#1F2A44" font-size="26" font-family="Arial, Helvetica, sans-serif" font-weight="700">Learning Pathways</text>
  <text x="372" y="510" fill="#66758F" font-size="18" font-family="Arial, Helvetica, sans-serif">A structured instructional</text>
  <text x="372" y="537" fill="#66758F" font-size="18" font-family="Arial, Helvetica, sans-serif">design case for exploring</text>
  <text x="372" y="564" fill="#66758F" font-size="18" font-family="Arial, Helvetica, sans-serif">sociotechnical tensions.</text>
  <rect x="372" y="614" width="112" height="42" rx="21" fill="#EEF2FF" stroke="#C8D3F6"/>
  <text x="397" y="641" fill="#4F6AF2" font-size="18" font-family="Arial, Helvetica, sans-serif" font-weight="700">Published</text>

  <rect x="652" y="128" width="912" height="736" rx="30" fill="#FFFFFF" stroke="#E0E7F4"/>
  <text x="690" y="170" fill="#7B88A0" font-size="14" font-family="Arial, Helvetica, sans-serif" font-weight="700" letter-spacing="3">SYSTEM TOPOLOGY</text>
  <text x="690" y="226" fill="#1F2A44" font-size="54" font-family="Arial, Helvetica, sans-serif" font-weight="700">Proposal network</text>

  <rect x="1270" y="150" width="120" height="40" rx="20" fill="#EEF2FF" stroke="#D3DBF6"/>
  <text x="1295" y="176" fill="#506CF3" font-size="19" font-family="Arial, Helvetica, sans-serif">Teacher</text>
  <rect x="1400" y="150" width="132" height="40" rx="20" fill="#F8FAFE" stroke="#D3DBF6"/>
  <text x="1423" y="176" fill="#52617B" font-size="19" font-family="Arial, Helvetica, sans-serif">Primary user</text>

  <rect x="1244" y="208" width="170" height="88" rx="22" fill="#FFFFFF" stroke="#DFE6F4"/>
  <text x="1267" y="238" fill="#7B88A0" font-size="14" font-family="Arial, Helvetica, sans-serif" font-weight="700" letter-spacing="3">MAP LAYER</text>
  <rect x="1264" y="248" width="128" height="34" rx="12" fill="#F4F6FB" stroke="#E0E7F4"/>
  <text x="1288" y="271" fill="#34415D" font-size="20" font-family="Arial, Helvetica, sans-serif">Base map</text>

  <rect x="676" y="316" width="866" height="482" rx="30" fill="#FAFBFF" stroke="#E0E7F4"/>
  <rect x="708" y="342" width="366" height="126" rx="24" fill="#FFFFFF" stroke="#E0E7F4"/>
  <text x="734" y="374" fill="#77849F" font-size="14" font-family="Arial, Helvetica, sans-serif" font-weight="700" letter-spacing="3">D3 FORCE GRAPH</text>
  <text x="734" y="413" fill="#1F2A44" font-size="26" font-family="Arial, Helvetica, sans-serif" font-weight="700">Hover a node to inspect the issue behind it.</text>
  <text x="734" y="449" fill="#66758F" font-size="18" font-family="Arial, Helvetica, sans-serif">Click a stakeholder node to change perspective.</text>

  <g opacity="0.95">
    <line x1="1095" y1="588" x2="885" y2="542" stroke="#6D8CFF" stroke-width="3"/>
    <line x1="1095" y1="588" x2="1008" y2="688" stroke="#FF8A72" stroke-width="3"/>
    <line x1="1095" y1="588" x2="1274" y2="660" stroke="#4ED1B7" stroke-width="3"/>
    <line x1="885" y1="542" x2="820" y2="642" stroke="#6D8CFF" stroke-width="3"/>
    <line x1="1274" y1="660" x2="1388" y2="706" stroke="#6D8CFF" stroke-width="3"/>
    <line x1="1274" y1="660" x2="1378" y2="574" stroke="#C8CFDA" stroke-width="3"/>
    <line x1="1008" y1="688" x2="964" y2="782" stroke="#FF8A72" stroke-width="3"/>
  </g>

  <g>
    <circle cx="1095" cy="588" r="34" fill="#FFFFFF" stroke="#9DB0FF" stroke-width="5"/>
    <circle cx="1095" cy="588" r="26" fill="#F3F6FF" stroke="#F1C75B" stroke-width="4"/>
    <text x="1077" y="595" fill="#34415D" font-size="24" font-family="Arial, Helvetica, sans-serif" font-weight="700">+</text>
    <text x="1062" y="638" fill="#1F2A44" font-size="24" font-family="Arial, Helvetica, sans-serif" font-weight="700">Case</text>
  </g>

  <g>
    <circle cx="885" cy="542" r="24" fill="#FFFFFF" stroke="#9DB0FF" stroke-width="4"/>
    <circle cx="885" cy="542" r="18" fill="#F3F6FF" stroke="#F1C75B" stroke-width="3"/>
    <text x="853" y="577" fill="#1F2A44" font-size="22" font-family="Arial, Helvetica, sans-serif" font-weight="700">Teacher</text>
  </g>

  <g>
    <circle cx="1008" cy="688" r="22" fill="#FFFFFF" stroke="#9DB0FF" stroke-width="4"/>
    <circle cx="1008" cy="688" r="16" fill="#F3F6FF" stroke="#F1C75B" stroke-width="3"/>
    <text x="972" y="724" fill="#1F2A44" font-size="20" font-family="Arial, Helvetica, sans-serif" font-weight="700">IT Systems</text>
  </g>

  <g>
    <circle cx="1274" cy="660" r="22" fill="#E9FFFA" stroke="#7DD6C7" stroke-width="4"/>
    <text x="1246" y="697" fill="#1F2A44" font-size="20" font-family="Arial, Helvetica, sans-serif" font-weight="700">Student</text>
  </g>

  <g>
    <circle cx="1388" cy="706" r="15" fill="#22365F"/>
    <circle cx="1378" cy="574" r="15" fill="#22365F"/>
    <circle cx="820" cy="642" r="15" fill="#22365F"/>
    <circle cx="964" cy="782" r="15" fill="#22365F"/>
    <circle cx="1216" cy="642" r="15" fill="#22365F"/>
    <circle cx="1328" cy="736" r="15" fill="#22365F"/>
  </g>

  <rect x="1112" y="740" width="392" height="78" rx="24" fill="#FFFFFF" stroke="#E0E7F4"/>
  <line x1="1142" y1="775" x2="1166" y2="775" stroke="#6D8CFF" stroke-width="3"/>
  <text x="1178" y="782" fill="#61708A" font-size="18" font-family="Arial, Helvetica, sans-serif">Instructional signals</text>
  <line x1="1342" y1="775" x2="1366" y2="775" stroke="#FF8A72" stroke-width="3"/>
  <text x="1378" y="782" fill="#61708A" font-size="18" font-family="Arial, Helvetica, sans-serif">Constraint friction</text>
  <line x1="1142" y1="804" x2="1166" y2="804" stroke="#4ED1B7" stroke-width="3"/>
  <text x="1178" y="811" fill="#61708A" font-size="18" font-family="Arial, Helvetica, sans-serif">Aligned evidence</text>
</svg>
